<?xml version="1.0" encoding="UTF-8"?>
<svg id="Layer_2" data-name="Layer 2" xmlns="http://www.w3.org/2000/svg" xmlns:xlink="http://www.w3.org/1999/xlink" viewBox="0 0 339.51 80.26">
  <defs>
    <style>
      .cls-1 {
        fill: url(#linear-gradient);
      }

      .cls-1, .cls-2, .cls-3, .cls-4, .cls-5 {
        stroke-width: 0px;
      }

      .cls-6 {
        fill: #60a5fa;
        font-family: Poppins-Regular, Poppins;
        font-size: 10px;
        letter-spacing: .21em;
      }

      .cls-2 {
        fill: url(#linear-gradient-5);
      }

      .cls-3 {
        fill: url(#linear-gradient-2);
      }

      .cls-4 {
        fill: url(#linear-gradient-3);
      }

      .cls-5 {
        fill: url(#linear-gradient-4);
      }
    </style>
    <linearGradient id="linear-gradient" x1="211.93" y1="45.19" x2="211.93" y2="12.5" gradientUnits="userSpaceOnUse">
      <stop offset="0" stop-color="#0052d4"/>
      <stop offset=".04" stop-color="#1261da"/>
      <stop offset=".13" stop-color="#2e79e4"/>
      <stop offset=".23" stop-color="#468eed"/>
      <stop offset=".33" stop-color="#589df3"/>
      <stop offset=".46" stop-color="#65a8f8"/>
      <stop offset=".63" stop-color="#6caffb"/>
      <stop offset="1" stop-color="#6fb1fc"/>
    </linearGradient>
    <linearGradient id="linear-gradient-2" x1="15.55" y1="80.26" x2="15.55" y2="55.1" gradientUnits="userSpaceOnUse">
      <stop offset="0" stop-color="#0052d4"/>
      <stop offset="1" stop-color="#6fb1fc"/>
    </linearGradient>
    <linearGradient id="linear-gradient-3" x1="49.93" y1="70.45" x2="49.93" y2="35" xlink:href="#linear-gradient-2"/>
    <linearGradient id="linear-gradient-4" x1="49.93" y1="35.23" x2="49.93" y2="0" xlink:href="#linear-gradient-2"/>
    <linearGradient id="linear-gradient-5" y1="54.91" y2="29.56" xlink:href="#linear-gradient-2"/>
  </defs>
  <g id="OBJECTS">
    <g>
      <g>
        <path class="cls-1" d="M86.16,23.15c1.21-2.19,2.9-3.9,5.07-5.13,2.17-1.23,4.63-1.84,7.37-1.84,3.37,0,6.25.89,8.65,2.67,2.4,1.78,4,4.2,4.81,7.27h-7.6c-.57-1.19-1.37-2.09-2.4-2.71-1.04-.62-2.22-.93-3.54-.93-2.13,0-3.85.74-5.17,2.22-1.32,1.48-1.98,3.46-1.98,5.94s.66,4.46,1.98,5.94c1.32,1.48,3.04,2.22,5.17,2.22,1.32,0,2.5-.31,3.54-.93,1.04-.62,1.84-1.52,2.4-2.71h7.6c-.81,3.07-2.41,5.49-4.81,7.25-2.4,1.76-5.28,2.65-8.65,2.65-2.75,0-5.21-.61-7.37-1.84-2.17-1.23-3.86-2.93-5.07-5.11s-1.82-4.67-1.82-7.47.61-5.3,1.82-7.49Z"/>
        <path class="cls-1" d="M120.6,43.78c-1.76-.94-3.15-2.29-4.16-4.04-1.01-1.75-1.52-3.8-1.52-6.14s.51-4.36,1.54-6.12c1.02-1.76,2.42-3.12,4.2-4.06,1.78-.94,3.77-1.41,5.98-1.41s4.2.47,5.98,1.41c1.78.94,3.18,2.3,4.2,4.06,1.02,1.76,1.54,3.8,1.54,6.12s-.52,4.36-1.56,6.12c-1.04,1.76-2.45,3.12-4.24,4.06-1.79.94-3.79,1.41-6,1.41s-4.2-.47-5.96-1.41ZM129.94,37.76c.93-.97,1.39-2.36,1.39-4.16s-.45-3.19-1.35-4.16c-.9-.97-2.01-1.45-3.33-1.45s-2.46.48-3.35,1.43c-.89.96-1.33,2.35-1.33,4.18s.44,3.19,1.31,4.16c.88.97,1.97,1.45,3.29,1.45s2.44-.48,3.37-1.45Z"/>
        <path class="cls-1" d="M141.97,27.45c.88-1.75,2.07-3.1,3.58-4.04,1.51-.94,3.19-1.41,5.05-1.41,1.48,0,2.83.31,4.06.93,1.23.62,2.19,1.45,2.89,2.5v-10.46h6.91v29.9h-6.91v-3.23c-.65,1.08-1.57,1.94-2.77,2.59-1.2.65-2.59.97-4.18.97-1.86,0-3.54-.48-5.05-1.43-1.51-.96-2.7-2.32-3.58-4.08-.88-1.76-1.31-3.8-1.31-6.12s.44-4.35,1.31-6.1ZM156.11,29.51c-.96-1-2.12-1.49-3.49-1.49s-2.54.49-3.49,1.47c-.96.98-1.43,2.34-1.43,4.06s.48,3.09,1.43,4.1c.96,1.01,2.12,1.51,3.49,1.51s2.54-.5,3.49-1.49c.96-1,1.43-2.36,1.43-4.08s-.48-3.08-1.43-4.08Z"/>
        <path class="cls-1" d="M190.6,35.25h-15.64c.11,1.4.56,2.47,1.35,3.21.79.74,1.77,1.11,2.93,1.11,1.72,0,2.92-.73,3.6-2.18h7.35c-.38,1.48-1.06,2.81-2.04,4-.98,1.19-2.22,2.11-3.7,2.79-1.48.67-3.14,1.01-4.97,1.01-2.21,0-4.18-.47-5.9-1.41-1.72-.94-3.07-2.29-4.04-4.04-.97-1.75-1.45-3.8-1.45-6.14s.48-4.39,1.43-6.14c.96-1.75,2.3-3.1,4.02-4.04,1.72-.94,3.7-1.41,5.94-1.41s4.12.46,5.82,1.37c1.7.92,3.02,2.22,3.98,3.92.96,1.7,1.43,3.68,1.43,5.94,0,.65-.04,1.32-.12,2.02ZM183.65,31.41c0-1.19-.4-2.13-1.21-2.83-.81-.7-1.82-1.05-3.03-1.05s-2.13.34-2.93,1.01c-.79.67-1.29,1.63-1.47,2.87h8.65Z"/>
        <path class="cls-1" d="M199.04,44.14c-1.64-.67-2.96-1.67-3.94-2.99-.98-1.32-1.5-2.91-1.56-4.77h7.35c.11,1.05.47,1.85,1.09,2.4.62.55,1.43.83,2.42.83s1.83-.24,2.42-.71c.59-.47.89-1.12.89-1.96,0-.7-.24-1.28-.71-1.74-.47-.46-1.05-.83-1.74-1.13-.69-.3-1.66-.63-2.93-1.01-1.83-.57-3.33-1.13-4.48-1.7-1.16-.57-2.16-1.4-2.99-2.5-.84-1.1-1.25-2.54-1.25-4.32,0-2.64.96-4.71,2.87-6.2,1.91-1.49,4.4-2.24,7.47-2.24s5.64.75,7.55,2.24c1.91,1.5,2.94,3.58,3.07,6.24h-7.47c-.05-.92-.39-1.64-1.01-2.16-.62-.53-1.41-.79-2.38-.79-.83,0-1.51.22-2.02.67-.51.44-.77,1.08-.77,1.92,0,.92.43,1.63,1.29,2.14.86.51,2.21,1.06,4.04,1.66,1.83.62,3.32,1.21,4.46,1.78,1.14.57,2.13,1.39,2.97,2.46.83,1.08,1.25,2.46,1.25,4.16s-.41,3.08-1.23,4.4c-.82,1.32-2.01,2.37-3.58,3.15-1.56.78-3.41,1.17-5.54,1.17s-3.93-.34-5.58-1.01Z"/>
        <path class="cls-1" d="M231.76,39.01v5.86h-3.51c-2.5,0-4.46-.61-5.86-1.84-1.4-1.23-2.1-3.23-2.1-6v-8.97h-2.75v-5.74h2.75v-5.49h6.91v5.49h4.53v5.74h-4.53v9.05c0,.67.16,1.16.49,1.45.32.3.86.44,1.62.44h2.46Z"/>
        <path class="cls-1" d="M235.54,27.45c.88-1.75,2.07-3.1,3.58-4.04,1.51-.94,3.19-1.41,5.05-1.41,1.59,0,2.98.32,4.18.97,1.2.65,2.12,1.49,2.77,2.55v-3.19h6.91v22.54h-6.91v-3.19c-.67,1.05-1.61,1.9-2.81,2.55s-2.59.97-4.18.97c-1.83,0-3.5-.48-5.01-1.43s-2.7-2.32-3.58-4.08c-.88-1.76-1.31-3.8-1.31-6.12s.44-4.35,1.31-6.1ZM249.68,29.51c-.96-1-2.12-1.49-3.5-1.49s-2.54.49-3.49,1.47c-.96.98-1.43,2.34-1.43,4.06s.48,3.09,1.43,4.1c.96,1.01,2.12,1.51,3.49,1.51s2.54-.5,3.5-1.49c.96-1,1.43-2.36,1.43-4.08s-.48-3.08-1.43-4.08Z"/>
        <path class="cls-1" d="M275.6,39.01v5.86h-3.51c-2.5,0-4.46-.61-5.86-1.84-1.4-1.23-2.1-3.23-2.1-6v-8.97h-2.75v-5.74h2.75v-5.49h6.91v5.49h4.53v5.74h-4.53v9.05c0,.67.16,1.16.49,1.45.32.3.86.44,1.62.44h2.46Z"/>
        <path class="cls-1" d="M279.94,18.91c-.77-.71-1.15-1.6-1.15-2.65s.38-1.97,1.15-2.69c.77-.71,1.76-1.07,2.97-1.07s2.16.36,2.93,1.07c.77.71,1.15,1.61,1.15,2.69s-.38,1.93-1.15,2.65c-.77.71-1.74,1.07-2.93,1.07s-2.2-.36-2.97-1.07ZM286.35,22.32v22.54h-6.91v-22.54h6.91Z"/>
        <path class="cls-1" d="M295.66,43.78c-1.76-.94-3.15-2.29-4.16-4.04-1.01-1.75-1.52-3.8-1.52-6.14s.51-4.36,1.54-6.12,2.42-3.12,4.2-4.06c1.78-.94,3.77-1.41,5.98-1.41s4.2.47,5.98,1.41c1.78.94,3.18,2.3,4.2,4.06s1.54,3.8,1.54,6.12-.52,4.36-1.55,6.12c-1.04,1.76-2.45,3.12-4.24,4.06-1.79.94-3.79,1.41-6,1.41s-4.2-.47-5.96-1.41ZM304.99,37.76c.93-.97,1.39-2.36,1.39-4.16s-.45-3.19-1.35-4.16c-.9-.97-2.01-1.45-3.33-1.45s-2.46.48-3.35,1.43c-.89.96-1.33,2.35-1.33,4.18s.44,3.19,1.31,4.16c.88.97,1.97,1.45,3.29,1.45s2.44-.48,3.37-1.45Z"/>
        <path class="cls-1" d="M337.15,24.65c1.58,1.71,2.36,4.06,2.36,7.05v13.17h-6.87v-12.24c0-1.51-.39-2.68-1.17-3.51-.78-.83-1.83-1.25-3.15-1.25s-2.37.42-3.15,1.25c-.78.83-1.17,2.01-1.17,3.51v12.24h-6.91v-22.54h6.91v2.99c.7-1,1.64-1.78,2.83-2.36s2.52-.87,4-.87c2.64,0,4.75.85,6.32,2.57Z"/>
      </g>
      <g>
        <text class="cls-6" transform="translate(87.77 61.91)"><tspan x="0" y="0">Board to Code, It’s all Sync here</tspan></text>
        <text class="cls-6" transform="translate(87.77 61.91)"><tspan x="0" y="0">Board to Code, It’s all Sync here</tspan></text>
        <text class="cls-6" transform="translate(87.77 61.91)"><tspan x="0" y="0">Board to Code, It’s all Sync here</tspan></text>
      </g>
      <g>
        <polygon class="cls-3" points="25.35 80.26 0 54.91 25.35 29.56 31.1 35.32 11.51 54.91 31.1 74.51 25.35 80.26"/>
        <polygon class="cls-4" points="35.19 70.45 29.44 64.7 58.91 35.23 29.44 5.75 35.19 0 70.42 35.23 35.19 70.45"/>
        <polygon class="cls-5" points="70.42 35.23 58.91 35.23 29.44 5.75 35.19 0 70.42 35.23"/>
        <polygon class="cls-2" points="11.51 54.91 0 54.91 25.35 29.56 31.1 35.32 11.51 54.91"/>
      </g>
    </g>
  </g>
</svg>